HIERARCHY
ROOT Hips
{
	OFFSET 0.00000 0.00000 0.00000
	CHANNELS 6 Xposition Yposition Zposition Zrotation Yrotation Xrotation 
	JOINT LHipJoint
	{
		OFFSET 0 0 0
		CHANNELS 3 Zrotation Yrotation Xrotation
		JOINT LeftHip
		{
			OFFSET 1.62964 -1.40469 0.78906
			CHANNELS 3 Zrotation Yrotation Xrotation
			JOINT LeftKnee
			{
				OFFSET 2.29640 -6.30932 0.00000
				CHANNELS 3 Zrotation Yrotation Xrotation
				JOINT LeftAnkle
				{
					OFFSET 2.29451 -6.30412 0.00000
					CHANNELS 3 Zrotation Yrotation Xrotation
					JOINT LeftToe
					{
						OFFSET 0.03611 -0.09921 1.56387
						CHANNELS 3 Zrotation Yrotation Xrotation
						End Site
						{
							OFFSET 0.00000 -0.00000 0.80291
						}
					}
				}
			}
		}
	}
	JOINT RHipJoint
	{
		OFFSET 0 0 0
		CHANNELS 3 Zrotation Yrotation Xrotation
		JOINT RightHip
		{
			OFFSET -1.73712 -1.40469 0.78906
			CHANNELS 3 Zrotation Yrotation Xrotation
			JOINT RightKnee
			{
				OFFSET -2.28137 -6.26801 0.00000
				CHANNELS 3 Zrotation Yrotation Xrotation
				JOINT RightAnkle
				{
					OFFSET -2.28681 -6.28298 0.00000
					CHANNELS 3 Zrotation Yrotation Xrotation
					JOINT RightToe
					{
						OFFSET -0.15927 -0.43759 1.61103
						CHANNELS 3 Zrotation Yrotation Xrotation
						End Site
						{
							OFFSET -0.00000 -0.00000 0.84630
						}
					}
				}
			}
		}
	}
	JOINT lowerback
	{
		OFFSET 0 0 0
		CHANNELS 3 Zrotation Yrotation Xrotation
		JOINT Chest
		{
			OFFSET -0.04227 2.04338 -0.00225
			CHANNELS 3 Zrotation Yrotation Xrotation
			JOINT Chest2
			{
				OFFSET -0.02148 2.04482 -0.04273
				CHANNELS 3 Zrotation Yrotation Xrotation
				JOINT lowerneck
				{
					OFFSET 0 0 0
					CHANNELS 3 Zrotation Yrotation Xrotation
					JOINT Neck
					{
						OFFSET 0.09180 1.44629 0.19359
						CHANNELS 3 Zrotation Yrotation Xrotation
						JOINT Head
						{
							OFFSET 0.00887 1.40645 0.14750
							CHANNELS 3 Zrotation Yrotation Xrotation
							End Site
							{
								OFFSET -0.00669 1.50671 0.03707
							}
						}
					}
				}
				JOINT LeftCollar
				{
					OFFSET 0 0 0
					CHANNELS 3 Zrotation Yrotation Xrotation
					JOINT LeftShoulder
					{
						OFFSET 2.17674 1.86763 -0.06520
CHANNELS 3 Zrotation Xrotation Yrotation
						JOINT LeftElbow
						{
OFFSET 0 -4.657760 0.000000
CHANNELS 3 Zrotation Xrotation Yrotation
							JOINT LeftWrist
							{
OFFSET 0 -3.555390 0.000000
CHANNELS 3 Zrotation Xrotation Yrotation
								JOINT lhand
								{
									OFFSET 0 0 0
CHANNELS 3 Zrotation Xrotation Yrotation
									JOINT LFingers
									{
OFFSET 0 -0.707260 0.000000
CHANNELS 3 Zrotation Xrotation Yrotation
										End Site
										{
OFFSET 0 -0.570220 0.000000
										}
									}
								}
								JOINT LThumb
								{
OFFSET 0 0.000000 0.000000
CHANNELS 3 Zrotation Xrotation Yrotation
									End Site
									{
OFFSET 0 -0.578920 0.578920
									}
								}
							}
						}
					}
				}
				JOINT RightCollar
				{
					OFFSET 0 0 0
					CHANNELS 3 Zrotation Yrotation Xrotation
					JOINT RightShoulder
					{
						OFFSET -2.80694 1.55459 -0.32496
CHANNELS 3 Zrotation Xrotation Yrotation
						JOINT RightElbow
						{
OFFSET 0 -4.719250 -0.000000
CHANNELS 3 Zrotation Xrotation Yrotation
							JOINT RightWrist
							{
OFFSET 0 -3.569900 0.000000
CHANNELS 3 Zrotation Xrotation Yrotation
								JOINT rhand
								{
									OFFSET 0 0 0
CHANNELS 3 Zrotation Xrotation Yrotation
									JOINT RFingers
									{
OFFSET 0 -0.507760 0.000000
CHANNELS 3 Zrotation Xrotation Yrotation
										End Site
										{
OFFSET 0 -0.409370 0.000000
										}
									}
								}
								JOINT RThumb
								{
OFFSET 0 0.000000 0.000000
CHANNELS 3 Zrotation Xrotation Yrotation
									End Site
									{
OFFSET 0 -0.415620 0.415620
									}
								}
							}
						}
					}
				}
			}
		}
	}
}
MOTION
Frames: 7
Frame Time: 0.008333333333333333
8.526600 16.374800 9.516900 -179.893000 2.625600 -150.452000 0.000000 0.000000 0.000000 -15.868500 -18.761800 -23.053000 0.194100 2.837500 7.826700 0.228700 -2.472000 -8.514900 5.444000 -13.867000 -42.707200 0.000000 0.000000 0.000000 14.591100 16.749200 -23.344300 -0.245000 -3.185300 8.794900 -1.131500 -5.015400 -22.487600 -3.046400 10.769800 -31.507300 -5.357900 -1.867400 -27.168200 -0.743600 -0.019200 -2.263600 2.299000 0.014700 12.643600 -5.165800 -2.801600 -2.952200 8.722700 -3.847700 15.412900 3.408700 -1.301800 5.370400 0.000000 -0.000000 0.000000 6.339100 -1.877800 3.429100 4.967600 -8.529800 0.370700 17.342800 25.524600 11.005200 0.000000 0.000000 0.000000 -7.125000 0.000000 0.000000 -6.863400 18.511000 -4.360600 0.000000 -0.000000 0.000000 0.667200 5.054300 13.613000 -20.044200 -30.695600 -5.553900 -10.348300 9.311400 50.894700 0.000000 0.000000 0.000000 7.125000 0.000000 -0.000000 60.222700 74.342800 -45.337300
8.534980 16.377112 9.507653 -179.893000 2.745913 -150.555070 0.000000 0.000000 0.000000 -15.864647 -18.835394 -22.955710 0.205756 2.920727 8.058271 0.225232 -2.237058 -8.467603 5.003688 -13.387387 -40.837489 0.000000 0.000000 0.000000 14.677217 16.673776 -23.264348 -0.249720 -3.215450 8.879186 -1.107418 -5.193894 -22.390310 -3.259187 11.102996 -32.628356 -5.367629 -1.812108 -27.104624 -0.744756 0.053527 -2.304828 2.330403 0.051690 12.555846 -5.239587 -2.769234 -2.779774 8.722604 -3.795394 15.344508 3.424979 -1.284461 5.316938 0.000000 0.000000 0.000000 6.291996 -1.638138 3.366873 5.107371 -8.765513 0.391699 17.255142 25.285227 11.061166 0.000000 0.000000 0.000000 -7.125000 0.000000 0.000000 -6.925049 18.459080 -4.408378 0.000000 0.000000 0.000000 0.644178 4.953253 13.464174 -19.819276 -30.423957 -5.439560 -10.801134 9.977214 50.893929 0.000000 0.000000 0.000000 7.125000 0.000000 0.000000 59.929095 74.513203 -45.262454
8.541415 16.373772 9.496459 -179.926356 2.806927 -150.550661 0.000000 0.000000 0.000000 -15.947611 -18.774824 -22.977851 0.208794 2.942246 8.117967 0.183776 -1.879627 -7.657761 4.431622 -12.711254 -38.300851 0.000000 0.000000 0.000000 14.669289 16.699901 -23.196720 -0.248232 -3.205667 8.852009 -1.094362 -5.334956 -22.364641 -3.392198 11.304252 -33.313103 -5.379674 -1.740509 -27.223207 -0.798169 0.170636 -2.295559 2.320481 0.105913 12.621250 -5.136589 -2.787643 -2.766251 8.681276 -3.822957 15.268240 3.392059 -1.297883 5.290532 0.000000 0.000000 0.000000 6.417229 -1.520780 1.840242 5.256592 -9.016791 0.414830 17.258749 23.759718 10.843338 0.000000 0.000000 0.000000 -7.125000 0.000000 0.000000 -6.922489 18.684381 -4.372026 0.000000 0.000000 0.000000 0.659144 4.797261 13.378632 -19.662731 -30.233850 -5.360521 -10.418596 9.825537 51.038534 0.000000 0.000000 0.000000 7.125000 0.000000 0.000000 60.653669 74.429177 -45.804037
8.548663 16.371453 9.487770 -179.945017 2.773494 -150.478815 0.000000 0.000000 0.000000 -15.967992 -18.659997 -23.084542 0.208911 2.942632 8.119064 0.178453 -1.981112 -7.536218 4.559068 -12.869008 -38.880697 0.000000 0.000000 0.000000 14.675874 16.748915 -23.166596 -0.243651 -3.176237 8.769783 -1.083879 -5.366422 -22.294206 -3.336432 11.220697 -33.027916 -5.384337 -1.709106 -27.342514 -0.823311 0.233623 -2.320594 2.319155 0.138841 12.650992 -5.036015 -2.813403 -2.760005 8.640272 -3.860715 15.197265 3.359057 -1.316173 5.267867 0.000000 0.000000 0.000000 6.533722 -1.415566 0.165514 5.413129 -9.279810 0.439735 17.245419 22.129037 10.705686 0.000000 0.000000 0.000000 -7.125000 0.000000 0.000000 -6.932066 18.827864 -4.355920 0.000000 0.000000 0.000000 0.646875 4.699956 13.334661 -19.551430 -30.098051 -5.304592 -9.520753 9.384922 51.405126 0.000000 0.000000 0.000000 7.125000 0.000000 0.000000 62.422316 74.238787 -47.149179
8.554021 16.370006 9.473407 -179.976005 2.899920 -150.512654 0.000000 0.000000 0.000000 -16.049549 -18.603063 -22.910418 0.203867 2.907267 8.020680 0.179906 -1.883810 -7.577385 4.597959 -12.916157 -39.055525 0.000000 0.000000 0.000000 14.630819 16.828151 -23.032295 -0.239688 -3.150690 8.698563 -1.083382 -5.327796 -22.265652 -3.220299 11.043086 -32.425650 -5.403056 -1.645587 -27.421617 -0.848848 0.335761 -2.334805 2.339830 0.186931 12.668929 -5.011804 -2.823225 -2.728333 8.611884 -3.873204 15.129143 3.344636 -1.326234 5.241414 0.000000 0.000000 0.000000 6.542293 -1.364017 -0.851239 5.518371 -9.456475 0.456847 17.158135 21.177803 10.501414 0.000000 0.000000 0.000000 -7.125000 0.000000 0.000000 -6.994296 19.045241 -4.361551 0.000000 0.000000 0.000000 0.632062 4.749457 13.343138 -19.531337 -30.073531 -5.294476 -9.373149 9.354792 51.591054 0.000000 0.000000 0.000000 7.125000 0.000000 0.000000 63.129488 74.255427 -47.790177
8.560596 16.370371 9.464079 -180.083861 3.063567 -150.589391 0.000000 0.000000 0.000000 -16.215143 -18.572905 -22.713214 0.197939 2.864954 7.903061 0.181261 -1.727641 -7.625049 4.782804 -13.134176 -39.874195 0.000000 0.000000 0.000000 14.453750 17.012317 -22.868470 -0.236161 -3.127552 8.634120 -1.077867 -5.466339 -22.304651 -3.164311 10.956393 -32.132929 -5.531022 -1.599852 -27.394041 -0.883577 0.438081 -2.339965 2.411729 0.228806 12.640233 -5.031560 -2.820155 -2.739817 8.593187 -3.868151 15.060920 3.341249 -1.329967 5.222034 0.000000 0.000000 0.000000 6.463864 -1.478266 -0.991486 5.531767 -9.479006 0.458973 17.313774 21.062609 10.436554 0.000000 0.000000 0.000000 -7.125000 0.000000 0.000000 -6.884387 19.102123 -4.283286 0.000000 0.000000 0.000000 0.659597 4.718247 13.294296 -19.493672 -30.027490 -5.275595 -10.308035 9.873497 51.336958 0.000000 0.000000 0.000000 7.125000 0.000000 0.000000 61.717513 74.507925 -46.819205
8.568215 16.371747 9.457354 -180.133508 3.173965 -150.618254 0.000000 0.000000 0.000000 -16.299041 -18.466214 -22.637664 0.191966 2.821561 7.782322 0.180409 -1.636011 -7.617606 5.095948 -13.489185 -41.232000 0.000000 0.000000 0.000000 14.371651 17.153967 -22.765286 -0.232927 -3.106360 8.574910 -1.073871 -5.557728 -22.327844 -3.141009 10.919911 -32.010135 -5.607827 -1.578178 -27.372748 -0.887381 0.488663 -2.346625 2.470370 0.248584 12.616906 -5.052405 -2.806414 -2.786402 8.566823 -3.849236 14.993638 3.335988 -1.327771 5.207919 0.000000 0.000000 0.000000 6.347465 -1.632580 -0.838994 5.546291 -9.503426 0.461395 17.758912 21.066300 10.817557 0.000000 0.000000 0.000000 -7.125000 0.000000 0.000000 -6.570317 18.676119 -4.146896 0.000000 0.000000 0.000000 0.676981 4.549933 13.241635 -19.365359 -29.870071 -5.211624 -11.116241 10.426362 51.269232 0.000000 0.000000 0.000000 7.125000 0.000000 0.000000 60.999771 74.787033 -46.486071
